<svg width="147" height="78" viewBox="0 0 147 78" fill="none" xmlns="http://www.w3.org/2000/svg">
<g filter="url(#filter0_d_24196_382)">
<path d="M143 0H4L63.9312 65.6531C69.1688 71.449 77.8312 71.449 83.0688 65.6531L143 0Z" fill="#81B3D3"/>
<path d="M40.804 0.497559L72.9951 38.2043L105.086 0.696539L40.804 0.497559Z" fill="#23A9E1"/>
<path d="M65.2734 14.6249H82.6225C81.3188 13.829 78.21 10.0483 76.6055 11.4412C76.5052 11.5407 71.6916 5.77026 68.5828 8.55598C65.8751 11.0432 64.5714 8.25751 61.5629 10.1478C57.9527 12.5356 63.5686 13.829 65.2734 14.6249ZM92.0492 11.1427L82.2214 11.2422C86.1324 6.76516 87.8373 7.26261 92.0492 11.1427Z" fill="white"/>
<path d="M101.877 3.58164V1.19388H103.983L101.877 3.58164ZM52.5371 12.9337C52.6374 13.0332 54.9439 10.5459 58.6544 8.0587C62.0641 5.77043 67.2788 3.18368 73.0953 3.18368C78.9118 3.18368 84.2268 5.86992 87.6365 8.15819C91.347 10.5459 93.6535 12.9337 93.7538 13.0332L91.2467 16.0179C86.7339 16.6148 83.5248 19.898 79.1123 19.2016C76.9061 18.8036 76.8058 17.6097 76.2041 16.3164C75.7027 15.3215 74.9004 15.5205 73.8976 15.1225C72.995 14.7245 72.3933 14.0281 70.4879 14.4261C68.8834 14.824 68.6828 17.3113 66.5769 17.2118C65.4737 17.1123 65.3734 15.6199 63.7689 13.6301C59.6573 8.75513 55.8465 9.45156 53.2391 13.9286L72.8947 37.1098L52.5371 12.9337ZM44.1133 1.19388V3.08419L42.5087 1.19388H44.1133ZM98.1663 1.19388H101.375V4.17858L98.1663 7.95921V1.19388ZM94.0546 12.5358V1.19388H97.5646V8.55615L94.0546 12.5358C94.1549 12.5358 94.0546 12.5358 94.0546 12.5358ZM93.5532 2.18878V12.0383C92.4501 10.9439 91.2467 9.94901 89.943 9.0536L93.5532 2.18878ZM89.4416 1.89031V8.65564C88.9401 8.35717 88.539 7.95921 87.9373 7.66074C87.2353 7.26278 86.5333 6.76533 85.7311 6.36737L89.4416 1.89031ZM85.0291 1.69133V5.96941C84.0262 5.47195 82.9231 4.9745 81.9203 4.47705L85.0291 1.69133ZM85.6308 1.19388H89.3413L85.6308 5.77043V1.19388ZM89.943 1.19388H93.5532L89.943 8.25768V1.19388ZM81.118 1.19388H85.0291L81.5191 4.27807C81.4189 4.27807 81.3186 4.17858 81.2183 4.17858L81.118 1.19388ZM80.6166 1.59184V3.9796C79.6138 3.58164 78.6109 3.28317 77.5078 3.08419L80.6166 1.59184ZM76.4047 1.59184V2.88521C75.7027 2.78572 75.0007 2.68623 74.1984 2.58674L76.4047 1.59184ZM69.5854 1.59184L71.7916 2.58674C70.9893 2.58674 70.2874 2.68623 69.5854 2.88521V1.59184ZM65.4737 1.59184L68.5825 3.08419C67.4794 3.28317 66.4766 3.58164 65.4737 3.9796V1.59184ZM69.084 2.78572L65.7746 1.19388H69.084V2.78572ZM72.5939 2.38776L69.7859 1.09439H72.5939V2.38776ZM73.2959 1.19388H76.2041L73.2959 2.48725V1.19388ZM77.0064 1.19388H80.2155L77.0064 2.78572V1.19388ZM64.5712 4.27807L61.0612 1.19388H64.9723V4.17858L64.5712 4.27807ZM60.961 1.69133L64.0698 4.37756C62.9666 4.77552 61.9638 5.27297 60.961 5.86992V1.69133ZM56.6488 1.89031L60.259 6.36737C58.9553 7.0638 57.7519 7.85972 56.6488 8.75513V1.89031ZM52.4368 2.18878L56.0471 9.15309C54.7434 10.148 53.54 11.1429 52.4368 12.3368V2.18878ZM56.1473 8.15819L52.5371 1.09439H56.1473V8.15819ZM60.4595 5.67093L56.749 1.09439H60.4595V5.67093ZM47.8238 7.46176L44.6147 3.68113V1.19388H47.8238V7.46176ZM48.4255 1.19388H51.9354V12.3368L48.4255 8.15819V1.19388ZM73.2959 0H40.1019V14.5256L72.995 54.2221L73.1956 53.9236L106.289 14.9235V0H73.2959Z" fill="#491213"/>
<path d="M70.3877 45.7655L72.9951 41.5869L75.6025 45.7655L72.9951 49.9441L70.3877 45.7655Z" fill="#23A9E1"/>
<path d="M78.4106 30.444C75.001 28.4542 75.8033 26.9619 78.6112 25.569C80.1155 24.8726 83.4248 22.1863 84.7285 23.0818L78.4106 30.444ZM76.1041 32.9313C74.0984 32.8318 71.7919 32.5333 69.7862 33.0308C70.9896 33.3292 73.9981 34.2246 71.1902 34.9211C72.193 36.3139 73.7976 36.2144 74.8004 35.0206C74.3993 34.8216 74.0984 34.5231 73.7976 34.3241C74.9007 34.0257 75.9035 33.4287 76.1041 32.9313ZM77.3075 31.3394C76.405 30.5435 75.4021 30.5435 74.5998 31.3394C73.3964 29.2501 69.1845 29.9466 67.1788 29.6481C68.282 32.2348 76.8061 32.7323 77.3075 31.3394ZM70.4882 29.1507C68.8837 28.6532 63.6689 28.7527 67.0786 27.3598C68.1817 26.9619 73.7976 27.4593 70.4882 29.1507ZM72.4939 26.1659C71.9925 25.0716 72.895 23.7782 74.1987 24.7731C75.4021 25.569 73.597 26.7629 72.4939 26.1659ZM69.5857 26.2654C67.2791 26.9619 64.2706 25.4695 67.9811 24.7731C70.2876 24.2756 72.6945 25.2705 69.5857 26.2654C69.6859 26.2654 69.4854 26.2654 69.5857 26.2654ZM66.9783 20.0971C66.4769 21.6889 65.474 21.9874 65.5743 20.0971C65.6746 17.8088 67.1788 18.4057 68.7834 17.5103C70.0871 16.8139 70.7891 14.1276 73.0956 15.7195C74.0984 16.4159 75.3018 15.819 75.6027 16.9134C75.6027 16.8139 72.6945 23.5792 74.299 23.5792C71.0899 23.5792 72.4939 19.7986 73.6973 17.2118C72.4939 17.8088 70.5885 21.4899 72.193 22.1863C71.3908 23.2807 68.7834 24.7731 67.4797 23.6787C66.3766 22.6838 66.9783 21.3904 66.9783 20.0971ZM62.9669 22.8828C57.351 22.8828 61.1618 14.3266 63.0672 14.8241C65.2735 15.5205 64.9726 22.9823 62.9669 22.8828ZM56.7493 14.7246C54.1419 14.6251 55.2451 12.1378 57.0502 11.6404C58.755 11.1429 62.2649 12.7348 63.4683 13.8292C61.6632 14.4261 59.3567 14.3266 57.351 14.4261C57.1505 12.4363 56.649 13.1327 56.7493 14.7246Z" fill="#DC6243"/>
<path d="M76.0039 25.6685C73.0957 22.6838 80.3161 22.9822 81.5195 21.8878C82.3218 22.1863 88.5394 16.5154 90.0437 16.9133C88.9406 18.2067 86.634 22.1863 85.0295 22.1863C83.7258 22.1863 82.4221 21.9873 81.4193 22.8827C79.915 24.2756 77.5082 24.972 76.0039 25.6685Z" fill="#F49774"/>
<path d="M76.906 22.0869C75.3015 22.9823 73.7972 19.5996 76.6052 19.8981C78.4103 20.0971 80.3157 19.6991 82.0205 19.9976C80.7168 21.49 78.9117 22.2859 76.906 22.0869Z" fill="#F4B1A4"/>
<path d="M55.2452 20.7936C55.546 21.1916 55.8469 21.5895 55.7466 22.1865C55.7466 22.5844 55.1449 23.1814 55.546 23.3803L57.0503 21.5895C56.6492 21.49 53.5404 17.8089 53.5404 17.4109L51.4344 18.5053C51.5347 18.9033 52.2367 18.5053 52.6378 18.5053C53.1392 18.5053 53.5404 18.9033 53.9415 19.2018C52.8384 20.0972 50.1307 22.4849 49.8299 22.4849C49.7296 22.4849 49.1279 22.087 49.1279 22.4849C49.1279 22.6839 49.7296 23.1814 49.8299 23.2808L51.2338 24.9722C51.635 24.7732 51.1336 24.4747 51.3341 24.1763C51.4344 23.9773 54.5432 21.49 55.2452 20.7936ZM51.8355 16.3165C52.1364 16.2171 52.2367 16.615 52.4372 16.3165L50.8327 14.4262C50.6321 14.1278 50.3313 13.8293 50.3313 14.4262C50.4316 14.8242 46.3199 18.1074 46.1194 18.2069C45.8185 18.3063 45.6179 17.9084 45.4174 18.3063C45.9188 18.9033 46.3199 19.4007 46.8214 19.9977C47.0219 20.1967 47.1222 20.3956 47.3228 20.5946C47.5233 20.7936 47.4231 20.1967 47.4231 20.1967C47.3228 19.8982 47.7239 19.5997 48.0248 19.4007C49.0276 18.4058 51.5347 16.3165 51.8355 16.3165ZM46.1194 15.7196C45.0162 16.0181 43.7126 15.6201 43.4117 14.4262C43.0106 13.2323 43.8128 12.0385 44.7154 11.342C45.6179 10.6456 47.0219 10.7451 47.5233 11.8395C47.7239 12.3369 47.6236 12.9339 47.4231 13.4313C47.3228 13.7298 47.0219 14.0283 47.4231 14.2273C48.0248 13.5308 48.5262 12.8344 49.1279 12.138C48.4259 11.74 48.125 11.0436 47.6236 10.4466C47.0219 9.7502 46.3199 9.05377 45.3171 8.95428C43.4117 8.6558 41.7069 10.6456 41.5063 12.3369C41.406 13.2323 41.7069 14.1278 42.3086 14.9237C42.81 15.5206 43.512 16.0181 43.9131 16.7145C44.1137 16.814 45.7182 16.0181 46.0191 15.9186C46.2196 15.9186 46.1194 15.8191 46.1194 15.7196C45.6179 15.9186 46.1194 15.7196 46.1194 15.7196ZM71.6917 39.1993C70.9898 38.7018 69.0844 36.2146 68.6832 35.7171L68.4827 35.4186L68.2821 35.5181C68.1818 35.6176 68.3824 35.9161 68.2821 36.1151C67.7807 36.911 64.5716 39.2988 64.371 39.4977C63.9699 39.6967 63.5687 39.3982 63.3682 39.6967C63.8696 40.2937 65.1733 41.985 65.3739 41.985C65.6747 41.985 65.4741 41.4875 65.4741 41.388C65.5744 41.1891 67.179 39.7962 67.7807 39.2988C67.9812 39.0998 68.1818 39.5972 68.3824 39.7962C68.5829 40.0947 68.6832 40.4926 68.5829 40.7911C68.4827 40.9901 68.0815 41.388 68.3824 41.587C68.7835 41.0896 69.8866 39.7962 70.0872 39.5972C70.2878 39.3982 69.6861 39.5972 69.7863 39.4977C69.5858 39.5972 69.2849 39.6967 69.0844 39.4977C68.9841 39.4977 68.3824 38.8013 68.4827 38.7018C68.7835 38.5028 69.0844 38.1049 69.4855 38.0054C70.0872 37.9059 70.4883 39.0003 70.5886 39.3982C70.6889 39.7962 70.6889 40.1942 70.4883 40.4926C70.3881 40.7911 70.1875 40.9901 70.4883 41.0896L71.8923 39.1993C71.8923 39.2988 71.792 39.2988 71.6917 39.1993C71.5915 39.1993 71.792 39.2988 71.6917 39.1993ZM62.4656 30.3446C61.7636 30.3446 61.0617 30.6431 60.4599 31.1406C59.056 32.3344 58.8554 34.4237 59.9585 35.9161C61.2622 37.6074 63.3682 37.8064 65.073 36.6125C66.477 35.4186 66.6775 33.3293 65.5744 31.837C64.7722 30.8421 63.5687 30.3446 62.4656 30.3446ZM63.669 31.7375C64.5716 31.638 65.1733 32.5334 64.7722 33.5283C64.371 34.5232 63.3682 35.5181 62.3653 35.9161C61.1619 36.4135 60.3597 35.4186 60.8611 34.2248C61.2622 33.2299 62.2651 32.235 63.2679 31.837C63.3682 31.837 63.4685 31.7375 63.669 31.7375ZM60.8611 27.161C61.1619 27.161 61.4628 27.5589 61.6634 27.161L60.2594 25.4696C59.8582 25.6686 60.2594 25.8676 60.1591 26.0666C59.9585 26.365 58.4543 26.564 58.0531 26.6635C58.1534 26.2655 58.6548 24.9722 58.8554 24.8727C59.2565 24.5742 59.4571 25.1712 59.6577 24.7732L57.8526 22.6839C57.652 22.4849 57.4514 21.9875 57.2509 22.2859C57.2509 22.2859 57.2509 23.2808 57.1506 23.3803C57.0503 23.5793 56.5489 25.7681 55.9472 26.2655C55.6463 26.564 54.4429 27.5589 54.1421 27.6584C53.8412 27.7579 53.6407 27.2605 53.3398 27.6584L54.9443 29.5487C55.0446 29.6482 55.3455 30.1457 55.4458 30.1457C55.7466 30.2452 55.4458 29.5487 55.546 29.4492C55.6463 29.1508 57.1506 27.6584 57.8526 27.5589C58.7551 27.3599 59.8582 27.0615 60.8611 27.161C61.0617 27.161 60.6605 27.161 60.8611 27.161ZM85.1298 33.8268C85.2301 34.2248 85.3303 34.7222 85.2301 35.1202C85.1298 35.7171 84.6284 37.0105 83.8261 36.6125C83.0238 36.2146 82.4221 35.5181 81.7201 34.9212C82.2215 34.3242 82.723 33.8268 83.6255 34.1253C83.8261 34.2248 84.0266 34.1253 83.8261 33.9263C83.5252 33.7273 81.8204 32.6329 81.7201 32.7324C81.5196 32.9314 82.021 33.3293 81.8204 33.7273C81.7201 34.0258 81.4193 34.2248 81.2187 34.5232C80.7173 34.1253 80.0153 33.7273 80.5167 33.0309C80.9179 32.6329 81.319 32.235 81.9207 32.1355C82.3218 32.036 83.1241 32.4339 83.2244 32.036C82.5224 31.7375 81.8204 31.3395 81.1184 31.0411C81.2187 31.5385 78.9122 33.9263 78.4108 34.5232C78.3105 34.6227 78.0096 34.9212 78.0096 35.0207C78.0096 35.3191 78.4108 35.1202 78.4108 35.1202C78.7116 35.0207 82.8232 38.4033 82.9235 38.7018C83.0238 38.9008 82.8232 39.0998 82.9235 39.1993C82.9235 39.1993 83.0238 39.2988 83.1241 39.2988C83.4249 39.0003 86.0323 35.4186 86.634 35.3191C86.1326 34.5232 85.6312 33.7273 85.1298 32.9314C84.7286 33.1304 85.0295 33.6278 85.1298 33.8268ZM81.1184 38.2044C79.8147 37.309 77.5082 39.0003 77.1071 39.1993C76.4051 39.4977 75.9037 38.8013 76.3048 38.2044C76.6056 37.7069 77.2073 37.4084 77.8091 37.4084C78.0096 37.4084 78.7116 37.5079 78.7116 37.4084C78.8119 37.3089 78.8119 37.309 78.7116 37.2095C78.1099 36.8115 77.6085 36.4135 77.0068 36.1151C76.9065 36.8115 76.1042 37.2095 75.7031 37.7069C75.2017 38.3039 74.7003 39.0003 74.7003 39.6967C74.7003 40.3931 75.1014 41.0896 75.8034 41.388C76.5054 41.786 77.3076 41.4875 78.0096 41.0896C78.4108 40.7911 78.8119 40.4926 79.213 40.2937C79.8147 39.9952 80.7173 40.2937 80.5167 41.0896C80.3162 41.786 79.6142 42.3829 78.9122 42.5819C78.511 42.6814 78.1099 42.6814 77.7088 42.4824C77.4079 42.3829 77.1071 41.985 76.9065 42.3829L79.213 43.9748C79.3133 43.4773 79.5139 43.2784 79.915 42.9799C80.4164 42.5819 80.8176 42.0845 81.2187 41.587C82.021 40.6916 82.3218 39.0998 81.1184 38.2044ZM98.7684 10.2476C98.7684 10.3471 98.7684 10.3471 98.7684 10.2476L97.8658 11.2425L97.0635 12.2374C96.863 12.4364 96.7627 12.5359 97.0635 12.7349C97.565 12.4364 100.573 17.5104 100.373 18.2069C99.8715 18.4058 95.8601 14.9237 95.7599 14.7247C95.7599 14.6252 95.9604 14.0283 95.6596 14.1278C95.5593 14.1278 95.1582 14.7247 95.0579 14.8242L94.4562 15.5206C94.6567 15.8191 94.757 15.5206 95.0579 15.5206C95.2584 15.6201 96.2613 16.416 96.5621 16.615C96.0607 16.615 94.8573 16.7145 94.6567 16.7145C94.055 16.814 94.3559 16.3165 93.9547 16.1176L92.4505 17.9084L91.5479 18.9033C91.5479 18.9033 91.5479 18.9033 91.5479 19.0028C91.7485 19.2018 91.6482 19.1023 91.9491 19.0028C92.2499 18.9033 96.2613 22.1865 96.3616 22.3854C96.5621 22.6839 96.2613 22.9824 96.6624 23.1814L97.8658 21.7885C97.9661 21.689 97.9661 21.689 97.8658 21.689C97.565 21.49 97.565 21.7885 97.1638 21.7885C96.863 21.689 94.2556 19.5997 93.353 18.8038L98.6681 18.6048C98.8687 18.6048 99.3701 19.2018 99.3701 19.4007C99.2698 19.5997 99.0692 19.7987 99.3701 19.8982C99.6709 19.5002 99.9718 19.2018 100.273 18.8038L100.373 18.6048C100.473 18.6048 100.473 18.5053 100.473 18.4058L100.573 18.3063C100.874 18.0079 101.777 17.013 101.677 16.9135C101.376 16.615 101.275 17.212 100.874 16.9135C100.674 16.7145 100.072 15.7196 99.9718 15.5206C99.7712 15.2222 100.373 14.9237 100.573 14.8242C101.075 14.5257 102.679 14.0283 102.88 15.0232C102.88 15.2222 102.679 15.4211 102.78 15.5206C102.78 15.5206 102.88 15.7196 102.98 15.6201L105.086 13.0334C104.986 12.9339 104.986 12.9339 104.886 12.8344C104.384 13.3318 99.3701 11.342 99.0692 11.0436C98.9689 10.8446 98.9689 10.2476 98.7684 10.2476ZM98.5678 12.8344C99.3701 13.1329 100.072 13.4313 100.874 13.8293C100.674 13.9288 100.473 14.0283 100.273 14.1278C100.072 14.2272 99.8715 14.4262 99.6709 14.6252L98.5678 12.8344ZM91.9491 20.4951C90.8459 20.3956 89.7428 20.8931 88.9406 21.7885C87.7371 23.2808 87.8374 25.4696 89.3417 26.6635C90.8459 27.8574 93.0522 27.5589 94.2556 26.1661C95.459 24.6737 95.3587 22.4849 93.8545 21.291C93.353 20.8931 92.6511 20.5946 91.9491 20.4951ZM90.5451 22.087C91.1468 22.087 91.8488 22.4849 92.2499 22.7834C93.0522 23.2808 94.4562 24.4747 93.7542 25.4696C93.7542 25.3701 93.8545 25.3701 93.6539 25.5691C92.8516 26.365 91.4477 25.6686 90.7457 25.0717C90.0437 24.5742 88.74 23.3803 89.5423 22.3854C89.8431 22.1865 90.144 22.087 90.5451 22.087ZM87.4363 26.365C86.2329 26.2655 85.0295 26.8625 84.1269 27.9569C83.5252 28.7528 82.8232 29.4492 82.2215 30.2452C82.4221 30.5436 82.723 30.1457 83.0238 30.3446C83.3247 30.5436 87.1355 33.6278 87.1355 33.8268C87.2357 34.1253 86.9349 34.2248 87.2357 34.4237C87.336 34.5232 90.144 31.0411 90.4448 30.4441C90.8459 29.3497 90.5451 28.0564 89.6425 27.2605C89.7428 27.3599 89.8431 27.3599 89.6425 27.2605C88.8403 26.6635 88.1383 26.365 87.4363 26.365ZM86.3332 27.9569C86.4335 27.9569 86.5337 27.9569 86.634 27.9569C88.038 28.3548 90.0437 30.0462 88.74 31.5385C88.5394 31.7375 88.74 31.5385 88.3389 31.9365C88.1383 32.1355 84.1269 28.9518 84.3275 28.7528C84.7286 28.2554 85.6312 27.8574 86.3332 27.9569Z" fill="white"/>
</g>
<defs>
<filter id="filter0_d_24196_382" x="0" y="0" width="147" height="78" filterUnits="userSpaceOnUse" color-interpolation-filters="sRGB">
<feFlood flood-opacity="0" result="BackgroundImageFix"/>
<feColorMatrix in="SourceAlpha" type="matrix" values="0 0 0 0 0 0 0 0 0 0 0 0 0 0 0 0 0 0 127 0" result="hardAlpha"/>
<feOffset dy="4"/>
<feGaussianBlur stdDeviation="2"/>
<feComposite in2="hardAlpha" operator="out"/>
<feColorMatrix type="matrix" values="0 0 0 0 0 0 0 0 0 0 0 0 0 0 0 0 0 0 0.25 0"/>
<feBlend mode="normal" in2="BackgroundImageFix" result="effect1_dropShadow_24196_382"/>
<feBlend mode="normal" in="SourceGraphic" in2="effect1_dropShadow_24196_382" result="shape"/>
</filter>
</defs>
</svg>
